HIERARCHY
ROOT RootJoint
{
    OFFSET   0.000000   0.000000   0.000000
    CHANNELS 6 Xposition Yposition Zposition Xrotation Yrotation Zrotation
    JOINT pelvis_lowerback
    {
        OFFSET   0.000000   0.093605   0.000000
        CHANNELS 3 Xrotation Yrotation Zrotation
        JOINT lowerback_torso
        {
            OFFSET   0.000000   0.100000   0.000000
            CHANNELS 3 Xrotation Yrotation Zrotation
            JOINT torso_head
            {
                OFFSET   0.000000   0.282350   0.000000
                CHANNELS 3 Xrotation Yrotation Zrotation
                End Site
                {
                    OFFSET   0.000000   0.192650   0.000000
                }
            }
            JOINT rTorso_Clavicle
            {
                OFFSET  -0.001000   0.157500   0.000000
                CHANNELS 3 Xrotation Yrotation Zrotation
                JOINT rShoulder
                {
                    OFFSET  -0.117647   0.000000   0.000000
                    CHANNELS 3 Xrotation Yrotation Zrotation
                    JOINT rElbow
                    {
                        OFFSET  -0.245000   0.000000   0.000000
                        CHANNELS 3 Xrotation Yrotation Zrotation
                        JOINT rWrist
                        {
                            OFFSET  -0.240000   0.000000   0.000000
                            CHANNELS 3 Xrotation Yrotation Zrotation
                            End Site
                            {
                                OFFSET  -0.116353  -0.002500   0.000000
                            }
                        }
                    }
                }
            }
            JOINT lTorso_Clavicle
            {
                OFFSET   0.001000   0.157500   0.000000
                CHANNELS 3 Xrotation Yrotation Zrotation
                JOINT lShoulder
                {
                    OFFSET   0.117647   0.000000   0.000000
                    CHANNELS 3 Xrotation Yrotation Zrotation
                    JOINT lElbow
                    {
                        OFFSET   0.245000   0.000000   0.000000
                        CHANNELS 3 Xrotation Yrotation Zrotation
                        JOINT lWrist
                        {
                            OFFSET   0.240000   0.000000   0.000000
                            CHANNELS 3 Xrotation Yrotation Zrotation
                            End Site
                            {
                                OFFSET   0.116353  -0.002500   0.000000
                            }
                        }
                    }
                }
            }
        }
    }
    JOINT rHip
    {
        OFFSET  -0.100000  -0.051395   0.000000
        CHANNELS 3 Xrotation Yrotation Zrotation
        JOINT rKnee
        {
            OFFSET   0.000000  -0.410000   0.000000
            CHANNELS 3 Xrotation Yrotation Zrotation
            JOINT rAnkle
            {
                OFFSET   0.000000  -0.390000   0.000000
                CHANNELS 3 Xrotation Yrotation Zrotation
                JOINT rToeJoint
                {
                    OFFSET   0.000000  -0.050000   0.130000
                    CHANNELS 3 Xrotation Yrotation Zrotation
                    End Site
                    {
                        OFFSET  -0.010000   0.002000   0.060000
                    }
                }
            }
        }
    }
    JOINT lHip
    {
        OFFSET   0.100000  -0.051395   0.000000
        CHANNELS 3 Xrotation Yrotation Zrotation
        JOINT lKnee
        {
            OFFSET   0.000000  -0.410000   0.000000
            CHANNELS 3 Xrotation Yrotation Zrotation
            JOINT lAnkle
            {
                OFFSET   0.000000  -0.390000   0.000000
                CHANNELS 3 Xrotation Yrotation Zrotation
                JOINT lToeJoint
                {
                    OFFSET   0.000000  -0.050000   0.130000
                    CHANNELS 3 Xrotation Yrotation Zrotation
                    End Site
                    {
                        OFFSET   0.010000   0.002000   0.060000
                    }
                }
            }
        }
    }
}
MOTION
Frames: 7
Frame Time:   0.008333
 -2.376719   0.925631   3.975860   0.000000   0.000000   0.000000   0.000000   0.000000   0.000000   0.000000   0.000000   0.000000   0.000000   0.000000   0.000000   0.000000   0.000000   0.000000   0.000000   0.000000   0.000000   0.000000   0.000000   0.000000   0.000000   0.000000   0.000000   0.000000   0.000000   0.000000   0.000000   0.000000   0.000000   0.000000   0.000000   0.000000   0.000000   0.000000   0.000000   0.000000   0.000000   0.000000   0.000000   0.000000   0.000000   0.000000   0.000000   0.000000   0.000000   0.000000   0.000000   0.000000   0.000000   0.000000   0.000000   0.000000   0.000000   0.000000   0.000000   0.000000   0.000000   0.000000   0.000000
 -2.375669   0.925911   3.974846   0.273094  -1.127012   0.761361   0.094590   0.794196  -0.519959  -0.222664   0.073033  -0.491737   0.207591  -0.056800   0.334937   0.077982  -0.230442   0.334757   0.871076   0.098945   2.205903   0.022323   1.109362  -0.010617   0.146413  -0.197590  -2.952193  -0.075243   0.852724  -0.006876  -2.067995   0.287965  -1.595554   0.023244  -1.462316  -0.025466  -0.045141  -0.259049   2.942474  -1.676089   0.498156  -0.957047   3.438080   0.006041  -0.019794  -3.201074  -0.216215   0.426856  -0.401700   0.000655   0.003013  -0.859942   0.195018  -1.034393   2.224067   0.005179  -0.018441  -2.222462   0.572108   0.640900   0.288035  -0.000843  -0.000912
 -2.374232   0.926322   3.974325   0.427679  -2.520950   1.602061   0.233575   1.667467  -1.036492  -0.347687   0.298801  -1.026856   0.463781  -0.119522   0.627971   0.157593  -0.467492   1.294329   1.723843   0.231786   4.926275   0.050680   2.172682  -0.018282   0.336931  -0.105607  -5.284318  -0.153145   1.876362  -0.613560  -4.006709   0.738077  -3.545336   0.049867  -2.829692  -0.043179  -0.113476  -0.828181   5.311381  -3.272661   0.972704  -2.014325   7.152993   0.010374  -0.049204  -6.185743  -0.448956   0.817583  -0.858881   0.000754   0.007265  -1.526653   0.358294  -2.235387   4.597928   0.010087  -0.041601  -4.303012   1.079021   1.259875   0.453474  -0.000972  -0.001807
 -2.372628   0.926512   3.974274   0.544273  -3.955607   2.398553   0.352753   2.541055  -1.487025  -0.448698   0.589943  -1.515972   0.722344  -0.179649   0.894858   0.235977  -0.712488   2.625330   2.556839   0.383757   7.971000   0.077900   3.159057  -0.022722   0.526744   0.015707  -6.878018  -0.203705   2.949954  -1.606902  -5.794429   1.312864  -5.666025   0.072718  -4.077331  -0.054888  -0.174926  -1.286841   6.964736  -4.758691   1.430475  -3.022549  10.888153   0.010984  -0.076941  -8.966897  -0.688144   1.170149  -1.269220   0.000499   0.010568  -2.077973   0.506113  -3.441659   6.889528   0.013125  -0.061158  -6.246144   1.526623   1.852232   0.607555  -0.000951  -0.002631
 -2.370973   0.926240   3.974609   0.638265  -5.329731   3.130174   0.446643   3.383897  -1.870467  -0.549707   0.899910  -1.943446   0.969531  -0.235790   1.143881   0.317863  -0.968238   4.168429   3.373835   0.556939  11.236601   0.100968   4.070317  -0.024766   0.703503   0.102680  -7.908463  -0.221098   4.024520  -2.823439  -7.432185   1.979850  -7.838727   0.089484  -5.216599  -0.062320  -0.245893  -1.583623   8.087835  -6.136167   1.876010  -3.958685  14.621860   0.008594  -0.099066 -11.561903  -0.927663   1.486063  -1.648311   0.000093   0.012823  -2.554064   0.646108  -4.616574   9.057843   0.014563  -0.074941  -8.063777   1.923649   2.416639   0.746392  -0.000851  -0.003190
 -2.369342   0.925336   3.975254   0.709749  -6.599536   3.797034   0.516734   4.182730  -2.192974  -0.654881   1.206309  -2.310246   1.201865  -0.287691   1.376847   0.407101  -1.233362   5.818678   4.176756   0.755843  14.653393   0.118848   4.911519  -0.025222   0.863020   0.143104  -8.541437  -0.204557   5.075026  -4.151322  -8.925878   2.712082  -9.985291   0.099955  -6.259588  -0.066656  -0.331212  -1.741898   8.857036  -7.407566   2.309792  -4.825061  18.357233   0.004325  -0.114782 -13.983579  -1.163854   1.767953  -1.999011  -0.000357   0.014112  -2.973318   0.781286  -5.749506  11.097290   0.014938  -0.083124  -9.764604   2.276640   2.952605   0.870032  -0.000714  -0.003473
 -2.367788   0.923683   3.976135   0.757182  -7.749925   4.403558   0.565875   4.933297  -2.460824  -0.763550   1.499148  -2.620593   1.418522  -0.335456   1.594443   0.506031  -1.503865   7.506138   4.965799   0.985614  18.173406   0.131559   5.688353  -0.024730   1.005004   0.139319  -8.902164  -0.156135   6.087626  -5.516006 -10.284321   3.486633 -12.057092   0.104874  -7.217181  -0.068723  -0.429746  -1.794201   9.402146  -8.577720   2.731059  -5.628498  22.097623  -0.000859  -0.124562 -16.243425  -1.394355   2.018891  -2.322322  -0.000786   0.014609  -3.346529   0.912772  -6.836235  13.010843   0.014690  -0.086662 -11.356083   2.590945   3.460276   0.979987  -0.000569  -0.003534
